<?xml version="1.0" standalone="no"?>
<!DOCTYPE svg PUBLIC "-//W3C//DTD SVG 20010904//EN"
 "http://www.w3.org/TR/2001/REC-SVG-20010904/DTD/svg10.dtd">
<svg version="1.0" xmlns="http://www.w3.org/2000/svg"
 width="700.000000pt" height="700.000000pt" viewBox="0 0 700.000000 700.000000"
 preserveAspectRatio="xMidYMid meet">
<metadata>
Created by potrace 1.11, written by Peter Selinger 2001-2013
</metadata>
<g transform="translate(0.000000,700.000000) scale(0.100000,-0.100000)"
fill="#000000" stroke="none">
<path d="M3438 6922 c-9 -2 -18 -13 -21 -25 -4 -20 -190 -666 -302 -1052 -26
-88 -51 -173 -55 -190 -5 -16 -18 -64 -30 -105 -11 -41 -25 -88 -29 -105 -5
-16 -57 -196 -116 -400 -59 -203 -110 -380 -112 -392 -3 -13 -11 -23 -19 -23
-14 0 -317 73 -369 89 -16 5 -91 24 -165 42 -74 18 -137 34 -140 34 -3 1 -16
5 -30 8 -22 6 -773 193 -810 202 -8 2 -37 8 -65 15 -27 6 -63 15 -80 20 -56
18 -923 230 -940 230 -14 0 -27 -22 -67 -113 -5 -12 -1 -23 15 -36 12 -11 85
-72 162 -137 77 -65 142 -121 145 -124 3 -3 59 -50 125 -105 66 -55 126 -106
134 -113 7 -7 52 -46 100 -85 47 -40 88 -74 91 -77 3 -4 34 -30 70 -59 36 -30
67 -57 70 -60 3 -3 30 -26 60 -51 30 -25 57 -47 60 -50 4 -5 115 -98 175 -149
29 -24 611 -516 668 -564 26 -23 47 -43 47 -47 0 -3 -122 -109 -271 -235 -149
-127 -280 -237 -289 -245 -35 -29 -118 -99 -325 -275 -116 -97 -232 -196 -260
-220 -27 -23 -131 -111 -230 -195 -99 -83 -191 -161 -205 -173 -28 -25 -343
-290 -348 -293 -2 -1 11 -32 29 -68 34 -70 39 -73 103 -55 21 6 46 12 55 14 9
2 162 40 341 85 179 45 332 83 340 85 8 2 71 17 140 35 69 17 132 33 140 35 8
2 326 80 705 175 380 94 697 173 706 175 9 2 34 8 55 14 62 17 71 15 81 -26
13 -49 400 -1394 493 -1713 39 -135 72 -249 74 -255 1 -5 19 -72 41 -148 36
-129 40 -137 64 -138 36 -2 124 0 126 3 3 4 126 429 131 452 3 17 13 52 44
151 5 17 37 127 71 245 33 118 67 238 75 265 8 28 16 57 18 65 2 8 34 119 71
245 92 316 115 398 120 415 2 8 31 113 66 233 42 145 67 217 76 217 8 0 87
-18 176 -41 89 -22 169 -42 177 -44 8 -2 218 -53 465 -115 248 -62 457 -113
465 -115 8 -2 278 -69 600 -150 322 -81 598 -149 614 -152 16 -2 40 -9 53 -14
45 -17 57 -10 88 48 17 31 31 59 33 63 1 4 -44 47 -100 96 -57 49 -105 91
-108 94 -3 3 -17 15 -32 26 -15 12 -51 41 -80 66 -61 53 -262 224 -334 284
-27 23 -143 121 -259 219 -115 97 -221 187 -235 199 -14 11 -187 158 -385 325
-198 167 -369 312 -380 323 -20 18 -19 18 5 41 20 18 198 169 299 252 13 11
28 25 35 30 6 6 40 34 76 64 36 30 70 60 75 65 6 6 32 29 60 51 27 22 57 47
66 55 8 8 37 33 64 55 27 22 53 45 59 50 6 6 38 33 71 60 33 27 78 65 100 85
22 19 65 55 95 80 30 25 86 72 125 106 38 33 126 107 195 164 69 58 130 109
136 115 6 5 35 30 65 55 29 25 72 61 94 81 22 19 98 84 168 143 70 59 127 111
125 115 -2 3 -16 33 -32 65 -35 70 -1 71 -316 -9 -102 -25 -192 -48 -202 -50
-36 -8 -557 -136 -608 -150 -51 -14 -247 -63 -280 -70 -8 -2 -143 -36 -300
-75 -157 -40 -337 -84 -400 -100 -63 -15 -211 -51 -328 -80 -116 -29 -214 -51
-216 -49 -3 4 -113 375 -121 409 -2 8 -56 197 -120 420 -64 223 -125 439 -136
480 -11 41 -22 77 -24 80 -2 3 -13 39 -24 80 -18 70 -54 193 -101 350 -10 36
-45 155 -76 265 -31 110 -58 201 -59 203 -4 5 -118 8 -137 4z"/>
</g>
</svg>
