<svg  viewBox="0 0 387 178" fill="none" xmlns="http://www.w3.org/2000/svg">
<path d="M56.1999 101.5L56.8999 100.9L56.1999 100.3L39.8999 85.6L39.2999 85.1L38.7999 85.6L35.4999 88.9L34.8999 89.5L35.5999 90.1L47.8999 100.9L35.5999 111.7L34.8999 112.3L35.4999 112.9L38.7999 116.2L39.2999 116.7L39.8999 116.2L56.1999 101.5Z" fill="#FFB906" fill-opacity="0.2" stroke="#FFB906"/>
<path d="M34.3 101.5L35 100.9L34.3 100.3L18 85.6L17.4 85.1L16.9 85.6L13.6 88.9L13 89.5L13.7 90.1L26 100.9L13.7 111.7L13 112.3L13.6 112.9L16.9 116.2L17.4 116.7L18 116.2L34.3 101.5Z" fill="#FFB906" fill-opacity="0.2" stroke="#FFB906"/>
<path d="M75.6999 101.5L76.3999 100.9L75.6999 100.3L59.4999 85.6L58.8999 85.1L58.3999 85.6L55.0999 88.9L54.4999 89.5L55.1999 90.1L67.3999 100.9L55.0999 111.7L54.3999 112.3L54.9999 112.9L58.2999 116.2L58.7999 116.7L59.3999 116.2L75.6999 101.5Z" fill="#FFB906" fill-opacity="0.2" stroke="#FFB906"/>
<path d="M113.3 80.7C125.7 80.7 131.3 84.1999 131.3 91.5999C131.3 98.9999 125.7 102.5 113.3 102.5H103V120.9H96.3V80.7H113.3ZM113.3 98.0999C119.5 98.0999 124.3 96.7999 124.3 91.5999C124.3 86.3999 119.5 85.0999 113.3 85.0999H103V98.0999H113.3Z" fill="white"/>
<path d="M154.1 80.7C166.5 80.7 172.1 84.1999 172.1 91.5999C172.1 97.7999 166.9 100.7 160 100.7C163.8 101.2 168 102.9 169.2 107.6C171.9 118.1 172.4 119.9 173.2 120.9H166.2C165.4 119.9 165 117.9 162.8 108.7C161.7 104.2 159 102.5 150.5 102.5H143.8V120.9H137V80.7H154.1ZM154.1 98.0999C160.3 98.0999 165.1 96.7999 165.1 91.5999C165.1 86.3999 160.3 85.0999 154.1 85.0999H143.8V98.0999H154.1Z" fill="white"/>
<path d="M201.8 121.6C187.5 121.6 178.4 112.9 178.4 100.8C178.4 88.7 187.6 80 201.8 80C216.1 80 225.3 88.7 225.3 100.8C225.2 112.9 216 121.6 201.8 121.6ZM201.8 85.1C192.1 85.1 185.5 91.9 185.5 100.8C185.5 109.6 192.1 116.5 201.8 116.5C211.6 116.5 218.2 109.7 218.2 100.8C218.1 92 211.5 85.1 201.8 85.1Z" fill="white"/>
<path d="M276.5 80.7H286.8V120.9H280.1V87.7L264.3 120.9H255.5L239.7 87.7V120.9H233V80.7H243.3L259.9 116.5L276.5 80.7Z" fill="white"/>
<path d="M302.9 80.7V120.9H296.2V80.7H302.9Z" fill="white"/>
<path d="M335.7 98.5999C344.4 100.6 347.5 105 347.5 110.2C347.5 117.7 340 121.7 330.3 121.7C314.6 121.7 309.8 112.8 309.6 107.4L316.5 105.4C316.5 105.4 315.3 116.6 330.1 116.6C336.6 116.6 340.5 113.9 340.5 110.6C340.5 106.7 337.3 105.6 331.4 104.2L321.6 101.9C314.7 100.3 311.4 96.5 311.4 91.7C311.4 85.7 316.3 80.2 327.6 80.2C345.2 80.2 345.6 92.2 345.6 92.2L338.7 94.0999C338.7 94.0999 339.4 85.4 327.3 85.4C321.9 85.4 318.4 87.8 318.4 91.2C318.4 94.3 321 95.5999 325.5 96.5999L335.7 98.5999Z" fill="white"/>
<path d="M354.2 80.7H384.5V85.0999H361V98.5H383.1V102.9H361V116.4H386V120.8H354.2V80.7Z" fill="white"/>
<path d="M333.6 157.6L333 158.2L333.6 158.8L347.2 172.4L347.8 173L348.4 172.4L374 146.9L374.6 146.3L374 145.7L370.6 142.3L370 141.7L369.4 142.3L347.8 163.9L338.2 154.3L337.6 153.7L337 154.3L333.6 157.6Z" fill="#26B565" fill-opacity="0.2" stroke="#26B565"/>
<path d="M0 136.8H40.7V141.2H23.6V177H17V141.2H0V136.8Z" fill="white"/>
<path d="M64.3999 136.8C76.7999 136.8 82.3999 140.3 82.3999 147.7C82.3999 153.9 77.1999 156.8 70.2999 156.8C74.0999 157.3 78.2999 159 79.4999 163.7C82.1999 174.2 82.6999 176 83.4999 177H76.4999C75.6999 176 75.2999 174 73.0999 164.8C71.9999 160.3 69.2999 158.6 60.7999 158.6H54.0999V177H47.3999V136.8H64.3999V136.8ZM64.3999 154.2C70.5999 154.2 75.3999 152.9 75.3999 147.7C75.3999 142.5 70.5999 141.2 64.3999 141.2H54.0999V154.2H64.3999Z" fill="white"/>
<path d="M123 164.2H100.5L94.8 177H87.7L106.3 136.8H117.4L136 177H128.8L123 164.2ZM102.5 159.8H121L112.7 141.2H110.9L102.5 159.8Z" fill="white"/>
<path d="M174.7 154.8C174.7 154.8 174.2 141.2 160.4 141.2C150.7 141.2 145.1 148 145.1 156.9C145.1 165.7 151.2 172.6 160.9 172.6C175.4 172.6 175.7 159.8 175.7 159.8L182.6 161.8C182.6 161.8 181 177.7 160.8 177.7C146.5 177.7 137.9 169 137.9 156.9C137.9 144.8 146 136.1 160.3 136.1C179.8 136.1 181.5 152.7 181.5 152.7L174.7 154.8Z" fill="white"/>
<path d="M203.7 156.7L197.1 162.5V177H190.4V136.8H197.1V155.8L217.9 136.8H226.2L208.1 152.8L229.3 176.9H221.5L203.7 156.7Z" fill="white"/>
<path d="M235 136.8H265.3V141.2H241.7V154.6H263.8V159H241.7V172.5H266.8V176.9H235V136.8Z" fill="white"/>
<path d="M290.6 136.8C303 136.8 308.6 140.3 308.6 147.7C308.6 153.9 303.4 156.8 296.5 156.8C300.3 157.3 304.5 159 305.7 163.7C308.4 174.2 308.9 176 309.7 177H302.7C301.9 176 301.5 174 299.3 164.8C298.2 160.3 295.5 158.6 287 158.6H280.3V177H273.6V136.8H290.6V136.8ZM290.6 154.2C296.8 154.2 301.6 152.9 301.6 147.7C301.6 142.5 296.8 141.2 290.6 141.2H280.3V154.2H290.6Z" fill="white"/>
<path d="M19.0579 69.1856H21.8656L14.594 53.4913H10.2715L3 69.1856H5.78742L8.02947 64.1966H16.8159L19.0579 69.1856ZM12.0894 55.2082H12.7964L16.0483 62.4797H8.81722L12.0894 55.2082Z" fill="white"/>
<path d="M41.2691 53.4913H38.6432V66.4588L29.3317 53.4913H26.0999V69.1856H28.7257V56.2181L38.0373 69.1856H41.2691V53.4913Z" fill="white"/>
<path d="M53.9874 53.4913H46.9179V69.1856H53.9874C59.2391 69.1856 62.5315 66.1962 62.5315 61.3486C62.5315 56.4807 59.2391 53.4913 53.9874 53.4913ZM49.5437 55.2082H52.7755C57.2192 55.2082 59.7643 57.3088 59.7643 61.3486C59.7643 65.3883 57.2192 67.4688 52.7755 67.4688H49.5437V55.2082Z" fill="white"/>
<path d="M78.356 69.1856H89.9703V67.4688H80.9819V53.4913H78.356V69.1856Z" fill="white"/>
<path d="M93.8088 69.1856H106.231V67.4688H96.4346V62.1767H105.08V60.4598H96.4346V55.2082H105.645V53.4913H93.8088V69.1856Z" fill="white"/>
<path d="M127.24 59.1065C127.24 59.1065 126.311 53.2085 119.019 53.2085C113.444 53.2085 110.273 56.6221 110.273 61.3486C110.273 66.0549 113.444 69.4684 118.413 69.4684C123.261 69.4684 124.352 66.1558 124.352 66.1558V69.1856H126.977V61.2274H118.433V62.9443H124.352C124.352 62.9443 124.049 67.4688 118.817 67.4688C115.222 67.4688 113.04 64.8025 113.04 61.3486C113.04 57.8744 115.222 55.2082 119.019 55.2082C124.069 55.2082 124.533 59.9145 124.533 59.9145L127.24 59.1065Z" fill="white"/>
<path d="M132.762 53.4913V69.1856H135.388V53.4913H132.762Z" fill="white"/>
<path d="M146.246 59.5711C144.509 59.1873 143.479 58.6621 143.479 57.4704C143.479 56.1373 144.832 55.2082 146.953 55.2082C151.68 55.2082 151.397 58.6217 151.397 58.6217L154.104 57.8946C154.104 57.8946 153.942 53.2085 147.074 53.2085C142.671 53.2085 140.752 55.3496 140.752 57.7128C140.752 59.5913 142.065 61.086 144.752 61.7121L148.569 62.6009C150.872 63.1462 152.124 63.5906 152.124 65.1055C152.124 66.3982 150.609 67.4688 148.064 67.4688C142.247 67.4688 142.732 63.0856 142.732 63.0856L140.025 63.8734C140.126 65.9943 142.005 69.4684 148.125 69.4684C151.922 69.4684 154.851 67.9333 154.851 64.9843C154.851 62.9443 153.659 61.2274 150.246 60.4598L146.246 59.5711Z" fill="white"/>
<path d="M159.506 69.1856H171.12V67.4688H162.132V53.4913H159.506V69.1856Z" fill="white"/>
<path d="M189.603 69.1856H192.41L185.139 53.4913H180.816L173.545 69.1856H176.332L178.574 64.1966H187.361L189.603 69.1856ZM182.634 55.2082H183.341L186.593 62.4797H179.362L182.634 55.2082Z" fill="white"/>
<path d="M191.789 55.2082H198.454V69.1856H201.02V55.2082H207.685V53.4913H191.789V55.2082Z" fill="white"/>
<path d="M211.525 53.4913V69.1856H214.151V53.4913H211.525Z" fill="white"/>
<path d="M236.038 53.4913H233.23L227.211 67.4688L221.192 53.4913H218.384L225.353 69.1856H229.069L236.038 53.4913Z" fill="white"/>
<path d="M240.281 69.1856H252.703V67.4688H242.907V62.1767H251.552V60.4598H242.907V55.2082H252.117V53.4913H240.281V69.1856Z" fill="white"/>
<path d="M282.248 64.7217C282.248 60.9446 278.471 60.7426 278.471 60.7426C278.471 60.7426 281.844 60.379 281.844 57.329C281.844 54.8446 279.642 53.4913 274.794 53.4913H268.129V69.1856H275.198C280.046 69.1856 282.248 67.6909 282.248 64.7217ZM270.755 60.278V55.2082H274.794C277.218 55.2082 279.077 55.7131 279.077 57.733C279.077 59.7529 277.218 60.278 274.794 60.278H270.755ZM270.755 61.9949H275.198C277.622 61.9949 279.481 62.4999 279.481 64.7217C279.481 66.9436 277.622 67.4688 275.198 67.4688H270.755V61.9949Z" fill="white"/>
<path d="M287.29 53.4913V69.1856H289.916V61.9949H292.542C295.874 61.9949 296.925 62.6413 297.349 64.4188C298.197 67.9939 298.379 68.7817 298.682 69.1856H301.409C301.106 68.7817 300.924 68.0949 299.854 63.9744C299.389 62.1565 297.733 61.4698 296.258 61.288C298.985 61.288 301.005 60.1366 301.005 57.733C301.005 54.8446 298.803 53.4913 293.956 53.4913H287.29ZM289.916 60.278V55.2082H293.956C296.379 55.2082 298.238 55.7131 298.238 57.733C298.238 59.7529 296.379 60.278 293.956 60.278H289.916Z" fill="white"/>
<path d="M321.095 69.1856H323.903L316.631 53.4913H312.309L305.037 69.1856H307.825L310.067 64.1966H318.853L321.095 69.1856ZM314.127 55.2082H314.834L318.086 62.4797H310.854L314.127 55.2082Z" fill="white"/>
<path d="M343.306 53.4913H340.68V66.4588L331.369 53.4913H328.137V69.1856H330.763V56.2181L340.074 69.1856H343.306V53.4913Z" fill="white"/>
<path d="M365.377 59.7125C365.377 59.7125 364.73 53.2085 357.095 53.2085C351.52 53.2085 348.349 56.6221 348.349 61.3486C348.349 66.0549 351.722 69.4684 357.297 69.4684C365.175 69.4684 365.801 63.2674 365.801 63.2674L363.094 62.4797C363.094 62.4797 362.973 67.4688 357.297 67.4688C353.5 67.4688 351.116 64.8025 351.116 61.3486C351.116 57.8744 353.298 55.2082 357.095 55.2082C362.468 55.2082 362.67 60.5204 362.67 60.5204L365.377 59.7125Z" fill="white"/>
<path d="M383.381 69.1856H386.007V53.4913H383.381V60.4598H373.484V53.4913H370.858V69.1856H373.484V62.1767H383.381V69.1856Z" fill="white"/>
<path d="M142 23.3V24.2H142.9H183.8H184.7V23.3V15.9V15H183.8H142.9H142V15.9V23.3Z" fill="#F86849" fill-opacity="0.2" stroke="#F86849"/>
<path d="M0.000244141 4.39372H17.0582V40.1637H23.6229V4.39372H40.6809V0H0.000244141V4.39372Z" fill="white"/>
<path d="M77.387 40.1637H84.1068V0H77.387V17.8333H52.0585V0H45.3387V40.1637H52.0585V22.227H77.387V40.1637Z" fill="white"/>
<path d="M93.395 40.1637H125.185V35.77H100.115V22.227H122.238V17.8333H100.115V4.39372H123.686V0H93.395V40.1637Z" fill="white"/>
<path d="M219.1 40.1H201V0H218.1C230.5 0 236.1 3.5 236.1 9.8C236.1 17.6 227.5 18.5 227.5 18.5C227.5 18.5 237.2 19 237.2 28.7C237.1 36.3 231.5 40.1 219.1 40.1ZM218.1 17.3C224.3 17.3 229.1 16 229.1 10.8C229.1 5.6 224.3 4.3 218.1 4.3H207.8V17.3H218.1ZM207.7 35.7H219.1C225.3 35.7 230.1 34.4 230.1 28.7C230.1 23 225.3 21.7 219.1 21.7H207.7V35.7Z" fill="white"/>
<path d="M251.6 0V40.2H244.9V0H251.6Z" fill="white"/>
<path d="M300.9 20.1C300.9 32.5 292.5 40.2 279 40.2H260.9V0H279C292.4 0 300.9 7.6 300.9 20.1ZM267.6 35.7H275.9C287.3 35.7 293.8 30.4 293.8 20C293.8 9.7 287.3 4.3 275.9 4.3H267.6V35.7Z" fill="white"/>
<path d="M308.6 0H338.9V4.4H315.3V17.8H337.5V22.2H315.4V35.7H340.5V40.1H308.7V0H308.6Z" fill="white"/>
<path d="M385.9 40.1H377.6L353.8 6.9V40.1H347.1V0H355.4L379.2 33.2V0H385.9V40.1Z" fill="white"/>
</svg>
