<svg viewBox="0 0 386 153" fill="none" xmlns="http://www.w3.org/2000/svg">
<path d="M56.1999 76.6001L56.8999 76.0001L56.1999 75.4001L39.8999 60.7001L39.2999 60.2001L38.7999 60.7001L35.4999 64.0001L34.8999 64.6001L35.5999 65.2001L47.8999 76.0001L35.5999 86.8001L34.8999 87.4001L35.4999 88.0001L38.7999 91.3001L39.2999 91.8001L39.8999 91.3001L56.1999 76.6001Z" fill="#FFB906" fill-opacity="0.2" stroke="#FFB906" vector-effect="non-scaling-stroke"/>
<path d="M34.3 76.6001L35 76.0001L34.3 75.4001L18 60.7001L17.4 60.2001L16.9 60.7001L13.6 64.0001L13 64.6001L13.7 65.2001L26 76.0001L13.7 86.8001L13 87.4001L13.6 88.0001L16.9 91.3001L17.4 91.8001L18 91.3001L34.3 76.6001Z" fill="#FFB906" fill-opacity="0.2" stroke="#FFB906" vector-effect="non-scaling-stroke"/>
<path d="M75.6999 76.6001L76.3999 76.0001L75.6999 75.4001L59.4999 60.7001L58.8999 60.2001L58.3999 60.7001L55.0999 64.0001L54.4999 64.6001L55.1999 65.2001L67.3999 76.0001L55.0999 86.8001L54.3999 87.4001L54.9999 88.0001L58.2999 91.3001L58.7999 91.8001L59.3999 91.3001L75.6999 76.6001Z" fill="#FFB906" fill-opacity="0.2" stroke="#FFB906" vector-effect="non-scaling-stroke"/>
<path d="M333.6 132.7L333 133.3L333.6 133.9L347.2 147.5L347.8 148.1L348.4 147.5L374 122L374.6 121.4L374 120.8L370.6 117.4L370 116.8L369.4 117.4L347.8 139L338.2 129.4L337.6 128.8L337 129.4L333.6 132.7Z" fill="#26B565" fill-opacity="0.2" stroke="#26B565" vector-effect="non-scaling-stroke"/>
<path d="M113.3 55.8C125.7 55.8 131.3 59.3 131.3 66.7C131.3 74.1 125.7 77.6 113.3 77.6H103V96H96.3V55.8H113.3ZM113.3 73.2C119.5 73.2 124.3 71.9 124.3 66.7C124.3 61.5 119.5 60.2 113.3 60.2H103V73.2H113.3Z" fill="white"/>
<path d="M154.1 55.8C166.5 55.8 172.1 59.3 172.1 66.7C172.1 72.9 166.9 75.8001 160 75.8001C163.8 76.3001 168 78 169.2 82.7C171.9 93.2 172.4 95 173.2 96H166.2C165.4 95 165 93.0001 162.8 83.8001C161.7 79.3001 159 77.6 150.5 77.6H143.8V96H137V55.8H154.1ZM154.1 73.2C160.3 73.2 165.1 71.9 165.1 66.7C165.1 61.5 160.3 60.2 154.1 60.2H143.8V73.2H154.1Z" fill="white"/>
<path d="M201.8 96.7001C187.5 96.7001 178.4 88.0001 178.4 75.9001C178.4 63.8001 187.6 55.1001 201.8 55.1001C216.1 55.1001 225.3 63.8001 225.3 75.9001C225.2 88.0001 216 96.7001 201.8 96.7001ZM201.8 60.2001C192.1 60.2001 185.5 67.0001 185.5 75.9001C185.5 84.7001 192.1 91.6001 201.8 91.6001C211.6 91.6001 218.2 84.8001 218.2 75.9001C218.1 67.1001 211.5 60.2001 201.8 60.2001Z" fill="white"/>
<path d="M276.5 55.8H286.8V96H280.1V62.8001L264.3 96H255.5L239.7 62.8001V96H233V55.8H243.3L259.9 91.6L276.5 55.8Z" fill="white"/>
<path d="M302.9 55.8V96H296.2V55.8H302.9Z" fill="white"/>
<path d="M335.7 73.7C344.4 75.7 347.5 80.1001 347.5 85.3001C347.5 92.8001 340 96.8001 330.3 96.8001C314.6 96.8001 309.8 87.9001 309.6 82.5L316.5 80.5C316.5 80.5 315.3 91.7 330.1 91.7C336.6 91.7 340.5 89 340.5 85.7C340.5 81.8 337.3 80.7001 331.4 79.3001L321.6 77C314.7 75.4 311.4 71.6001 311.4 66.8001C311.4 60.8001 316.3 55.3 327.6 55.3C345.2 55.3 345.6 67.3001 345.6 67.3001L338.7 69.2C338.7 69.2 339.4 60.5 327.3 60.5C321.9 60.5 318.4 62.9001 318.4 66.3001C318.4 69.4001 321 70.7 325.5 71.7L335.7 73.7Z" fill="white"/>
<path d="M354.2 55.8H384.5V60.2H361V73.6H383.1V78H361V91.5H386V95.9001H354.2V55.8Z" fill="white"/>
<path d="M0 111.9H40.7V116.3H23.6V152.1H17V116.3H0V111.9Z" fill="white"/>
<path d="M64.3999 111.9C76.7999 111.9 82.3999 115.4 82.3999 122.8C82.3999 129 77.1999 131.9 70.2999 131.9C74.0999 132.4 78.2999 134.1 79.4999 138.8C82.1999 149.3 82.6999 151.1 83.4999 152.1H76.4999C75.6999 151.1 75.2999 149.1 73.0999 139.9C71.9999 135.4 69.2999 133.7 60.7999 133.7H54.0999V152.1H47.3999V111.9H64.3999ZM64.3999 129.3C70.5999 129.3 75.3999 128 75.3999 122.8C75.3999 117.6 70.5999 116.3 64.3999 116.3H54.0999V129.3H64.3999Z" fill="white"/>
<path d="M123 139.3H100.5L94.8 152.1H87.7L106.3 111.9H117.4L136 152.1H128.8L123 139.3ZM102.5 134.9H121L112.7 116.3H110.9L102.5 134.9Z" fill="white"/>
<path d="M174.7 129.9C174.7 129.9 174.2 116.3 160.4 116.3C150.7 116.3 145.1 123.1 145.1 132C145.1 140.8 151.2 147.7 160.9 147.7C175.4 147.7 175.7 134.9 175.7 134.9L182.6 136.9C182.6 136.9 181 152.8 160.8 152.8C146.5 152.8 137.9 144.1 137.9 132C137.9 119.9 146 111.2 160.3 111.2C179.8 111.2 181.5 127.8 181.5 127.8L174.7 129.9Z" fill="white"/>
<path d="M203.7 131.8L197.1 137.6V152.1H190.4V111.9H197.1V130.9L217.9 111.9H226.2L208.1 127.9L229.3 152H221.5L203.7 131.8Z" fill="white"/>
<path d="M235 111.9H265.3V116.3H241.7V129.7H263.8V134.1H241.7V147.6H266.8V152H235V111.9Z" fill="white"/>
<path d="M290.6 111.9C303 111.9 308.6 115.4 308.6 122.8C308.6 129 303.4 131.9 296.5 131.9C300.3 132.4 304.5 134.1 305.7 138.8C308.4 149.3 308.9 151.1 309.7 152.1H302.7C301.9 151.1 301.5 149.1 299.3 139.9C298.2 135.4 295.5 133.7 287 133.7H280.3V152.1H273.6V111.9H290.6ZM290.6 129.3C296.8 129.3 301.6 128 301.6 122.8C301.6 117.6 296.8 116.3 290.6 116.3H280.3V129.3H290.6Z" fill="white"/>
<path d="M142 23.3V24.2H142.9H183.8H184.7V23.3V15.9V15H183.8H142.9H142V15.9V23.3Z" fill="#F86849" fill-opacity="0.2" stroke="#F86849" vector-effect="non-scaling-stroke"/>
<path d="M0.000244141 4.39372H17.0582V40.1637H23.6229V4.39372H40.6809V0H0.000244141V4.39372Z" fill="white"/>
<path d="M77.387 40.1637H84.1068V0H77.387V17.8333H52.0585V0H45.3387V40.1637H52.0585V22.227H77.387V40.1637Z" fill="white"/>
<path d="M93.395 40.1637H125.185V35.77H100.115V22.227H122.238V17.8333H100.115V4.39372H123.686V0H93.395V40.1637Z" fill="white"/>
<path d="M219.1 40.1001H201V0.00012207H218.1C230.5 0.00012207 236.1 3.50012 236.1 9.80012C236.1 17.6001 227.5 18.5001 227.5 18.5001C227.5 18.5001 237.2 19.0001 237.2 28.7001C237.1 36.3001 231.5 40.1001 219.1 40.1001ZM218.1 17.3001C224.3 17.3001 229.1 16.0001 229.1 10.8001C229.1 5.60012 224.3 4.30012 218.1 4.30012H207.8V17.3001H218.1ZM207.7 35.7001H219.1C225.3 35.7001 230.1 34.4001 230.1 28.7001C230.1 23.0001 225.3 21.7001 219.1 21.7001H207.7V35.7001Z" fill="white"/>
<path d="M251.6 0.00012207V40.2001H244.9V0.00012207H251.6Z" fill="white"/>
<path d="M300.9 20.1001C300.9 32.5001 292.5 40.2001 279 40.2001H260.9V0.00012207H279C292.4 0.00012207 300.9 7.60012 300.9 20.1001ZM267.6 35.7001H275.9C287.3 35.7001 293.8 30.4001 293.8 20.0001C293.8 9.70012 287.3 4.30012 275.9 4.30012H267.6V35.7001Z" fill="white"/>
<path d="M308.6 0.00012207H338.9V4.40012H315.3V17.8001H337.5V22.2001H315.4V35.7001H340.5V40.1001H308.7V0.00012207H308.6Z" fill="white"/>
<path d="M385.9 40.1001H377.6L353.8 6.90012V40.1001H347.1V0.00012207H355.4L379.2 33.2001V0.00012207H385.9V40.1001Z" fill="white"/>
</svg>
