<svg viewBox="0 0 386 153" fill="none" xmlns="http://www.w3.org/2000/svg">
    <path d="M56.2 76.6L56.9 76L56.2 75.4L39.9 60.7L39.3 60.2L38.8 60.7L35.5 64L34.9 64.6L35.6 65.2L47.9 76L35.6 86.8L34.9 87.4L35.5 88L38.8 91.3L39.3 91.8L39.9 91.3L56.2 76.6Z" fill="#FFB906" fill-opacity="0.2" vector-effect="non-scaling-stroke" stroke="#FFB906"/>
    <path d="M34.3 76.6L35 76L34.3 75.4L18 60.7L17.4 60.2L16.9 60.7L13.6 64L13 64.6L13.7 65.2L26 76L13.7 86.8L13 87.4L13.6 88L16.9 91.3L17.4 91.8L18 91.3L34.3 76.6Z" fill="#FFB906" fill-opacity="0.2" vector-effect="non-scaling-stroke" stroke="#FFB906"/>
    <path d="M75.7 76.6L76.4 76L75.7 75.4L59.5 60.7L58.9 60.2L58.4 60.7L55.1 64L54.5 64.6L55.2 65.2L67.4 76L55.1 86.8L54.4 87.4L55 88L58.3 91.3L58.8 91.8L59.4 91.3L75.7 76.6Z" fill="#FFB906" fill-opacity="0.2" vector-effect="non-scaling-stroke" stroke="#FFB906"/>
    <path d="M333.6 132.7L333 133.3L333.6 133.9L347.2 147.5L347.8 148.1L348.4 147.5L374 122L374.6 121.4L374 120.8L370.6 117.4L370 116.8L369.4 117.4L347.8 139L338.2 129.4L337.6 128.8L337 129.4L333.6 132.7Z" fill="#26B565" fill-opacity="0.2" vector-effect="non-scaling-stroke" stroke="#26B565"/>
    <path d="M113.3 55.8C125.7 55.8 131.3 59.3 131.3 66.7C131.3 74.1 125.7 77.6 113.3 77.6H103V96H96.3V55.8H113.3ZM113.3 73.2C119.5 73.2 124.3 71.9 124.3 66.7C124.3 61.5 119.5 60.2 113.3 60.2H103V73.2H113.3Z" fill="white"/>
    <path d="M154.1 55.8C166.5 55.8 172.1 59.3 172.1 66.7C172.1 72.9 166.9 75.8001 160 75.8001C163.8 76.3001 168 78 169.2 82.7C171.9 93.2 172.4 95 173.2 96H166.2C165.4 95 165 93.0001 162.8 83.8001C161.7 79.3001 159 77.6 150.5 77.6H143.8V96H137V55.8H154.1ZM154.1 73.2C160.3 73.2 165.1 71.9 165.1 66.7C165.1 61.5 160.3 60.2 154.1 60.2H143.8V73.2H154.1Z" fill="white"/>
    <path d="M201.8 96.7C187.5 96.7 178.4 88 178.4 75.9C178.4 63.8 187.6 55.1 201.8 55.1C216.1 55.1 225.3 63.8 225.3 75.9C225.2 88 216 96.7 201.8 96.7ZM201.8 60.2C192.1 60.2 185.5 67 185.5 75.9C185.5 84.7 192.1 91.6 201.8 91.6C211.6 91.6 218.2 84.8 218.2 75.9C218.1 67.1 211.5 60.2 201.8 60.2Z" fill="white"/>
    <path d="M276.5 55.8H286.8V96H280.1V62.8001L264.3 96H255.5L239.7 62.8001V96H233V55.8H243.3L259.9 91.6L276.5 55.8Z" fill="white"/>
    <path d="M302.9 55.8V96H296.2V55.8H302.9Z" fill="white"/>
    <path d="M335.7 73.7C344.4 75.7 347.5 80.1001 347.5 85.3001C347.5 92.8001 340 96.8001 330.3 96.8001C314.6 96.8001 309.8 87.9 309.6 82.5L316.5 80.5C316.5 80.5 315.3 91.7 330.1 91.7C336.6 91.7 340.5 89 340.5 85.7C340.5 81.8 337.3 80.7001 331.4 79.3001L321.6 77C314.7 75.4 311.4 71.6001 311.4 66.8001C311.4 60.8001 316.3 55.3 327.6 55.3C345.2 55.3 345.6 67.3001 345.6 67.3001L338.7 69.2C338.7 69.2 339.4 60.5 327.3 60.5C321.9 60.5 318.4 62.9001 318.4 66.3001C318.4 69.4001 321 70.7 325.5 71.7L335.7 73.7Z" fill="white"/>
    <path d="M354.2 55.8H384.5V60.2H361V73.6H383.1V78H361V91.5H386V95.9001H354.2V55.8Z" fill="white"/>
    <path d="M0 111.9H40.7V116.3H23.6V152.1H17V116.3H0V111.9Z" fill="white"/>
    <path d="M62.4 111.9C74.8 111.9 80.4 115.4 80.4 122.8C80.4 129 75.2 131.9 68.3 131.9C72.1 132.4 76.3 134.1 77.5 138.8C80.2 149.3 80.7 151.1 81.5 152.1H74.5C73.7 151.1 73.3 149.1 71.1 139.9C70 135.4 67.3 133.7 58.8 133.7H52.1V152.1H45.4V111.9H62.4V111.9ZM62.4 129.3C68.6 129.3 73.4 128 73.4 122.8C73.4 117.6 68.6 116.3 62.4 116.3H52.1V129.3H62.4Z" fill="white"/>
    <path d="M121 139.3H98.5L92.8 152.1H85.7L104.3 111.9H115.4L134 152.1H126.8L121 139.3ZM100.5 134.9H119L110.7 116.3H108.9L100.5 134.9Z" fill="white"/>
    <path d="M174.7 129.9C174.7 129.9 174.2 116.3 160.4 116.3C150.7 116.3 145.1 123.1 145.1 132C145.1 140.8 151.2 147.7 160.9 147.7C175.4 147.7 175.7 134.9 175.7 134.9L182.6 136.9C182.6 136.9 181 152.8 160.8 152.8C146.5 152.8 137.9 144.1 137.9 132C137.9 119.9 146 111.2 160.3 111.2C179.8 111.2 181.5 127.8 181.5 127.8L174.7 129.9Z" fill="white"/>
    <path d="M203.7 131.8L197.1 137.6V152.1H190.4V111.9H197.1V130.9L217.9 111.9H226.2L208.1 127.9L229.3 152H221.5L203.7 131.8Z" fill="white"/>
    <path d="M235 111.9H265.3V116.3H241.7V129.7H263.8V134.1H241.7V147.6H266.8V152H235V111.9Z" fill="white"/>
    <path d="M290.6 111.9C303 111.9 308.6 115.4 308.6 122.8C308.6 129 303.4 131.9 296.5 131.9C300.3 132.4 304.5 134.1 305.7 138.8C308.4 149.3 308.9 151.1 309.7 152.1H302.7C301.9 151.1 301.5 149.1 299.3 139.9C298.2 135.4 295.5 133.7 287 133.7H280.3V152.1H273.6V111.9H290.6V111.9ZM290.6 129.3C296.8 129.3 301.6 128 301.6 122.8C301.6 117.6 296.8 116.3 290.6 116.3H280.3V129.3H290.6Z" fill="white"/>
    <path d="M142 23.3V24.2H142.9H183.8H184.7V23.3V15.9V15H183.8H142.9H142V15.9V23.3Z" fill="#F86849" fill-opacity="0.2" vector-effect="non-scaling-stroke" stroke="#F86849"/>
    <path d="M0.000305176 4.39372H17.0583V40.1637H23.623V4.39372H40.681V0H0.000305176V4.39372Z" fill="white"/>
    <path d="M77.3871 40.1637H84.1069V0H77.3871V17.8333H52.0586V0H45.3388V40.1637H52.0586V22.227H77.3871V40.1637Z" fill="white"/>
    <path d="M93.3951 40.1637H125.185V35.77H100.115V22.227H122.239V17.8333H100.115V4.39372H123.686V0H93.3951V40.1637Z" fill="white"/>
    <path d="M219.1 40.1H201V0H218.1C230.5 0 236.1 3.5 236.1 9.8C236.1 17.6 227.5 18.5 227.5 18.5C227.5 18.5 237.2 19 237.2 28.7C237.1 36.3 231.5 40.1 219.1 40.1ZM218.1 17.3C224.3 17.3 229.1 16 229.1 10.8C229.1 5.6 224.3 4.3 218.1 4.3H207.8V17.3H218.1ZM207.7 35.7H219.1C225.3 35.7 230.1 34.4 230.1 28.7C230.1 23 225.3 21.7 219.1 21.7H207.7V35.7Z" fill="white"/>
    <path d="M251.6 0V40.2H244.9V0H251.6Z" fill="white"/>
    <path d="M300.9 20.1C300.9 32.5 292.5 40.2 279 40.2H260.9V0H279C292.4 0 300.9 7.6 300.9 20.1ZM267.6 35.7H275.9C287.3 35.7 293.8 30.4 293.8 20C293.8 9.7 287.3 4.3 275.9 4.3H267.6V35.7Z" fill="white"/>
    <path d="M308.6 0H338.9V4.4H315.3V17.8H337.5V22.2H315.4V35.7H340.5V40.1H308.7V0H308.6Z" fill="white"/>
    <path d="M385.9 40.1H377.6L353.8 6.9V40.1H347.1V0H355.4L379.2 33.2V0H385.9V40.1Z" fill="white"/>
</svg>
