<svg viewBox="0 0 32 32" fill="currentColor" stroke="currentColor" stroke-opacity="90%" fill-opacity="10%" stroke-width="1" xmlns="http://www.w3.org/2000/svg">
    <path vector-effect="non-scaling-stroke" d="M6.33448 6.62835L5.98188 6.31101L5.64645 6.64645L3.64645 8.64645L3.26854 9.02435L3.67075 9.37629L11.2407 16L3.67075 22.6237L3.26854 22.9756L3.64645 23.3536L5.64645 25.3536L5.98188 25.689L6.33448 25.3716L16.3345 16.3716L16.7474 16L16.3345 15.6284L6.33448 6.62835Z"/>
    <path vector-effect="non-scaling-stroke" d="M18.3345 6.62835L17.9819 6.31101L17.6464 6.64645L15.6464 8.64645L15.2685 9.02435L15.6707 9.37629L23.2407 16L15.6707 22.6237L15.2685 22.9756L15.6464 23.3536L17.6464 25.3536L17.9819 25.689L18.3345 25.3716L28.3345 16.3716L28.7474 16L28.3345 15.6284L18.3345 6.62835Z"/>
</svg>
