<svg xmlns="http://www.w3.org/2000/svg"  fill="none" viewBox="0 0 274 90">
  <path fill="currentColor" fill-rule="evenodd" d="M129.543 30.548L138.037 1h1.926l8.494 29.548 33.65-8.376.893 1.72L158.063 45 183 66.107l-.893 1.72-33.65-8.375L139.963 89h-1.926l-8.494-29.548-33.65 8.376-.893-1.72L119.937 45 95 23.893l.893-1.72 33.65 8.375z" clip-rule="evenodd"/>
  <path fill="#fff" d="M63.784 62.846l.744-28.776C64.898 19.991 54.867 9 34.308 9 6.687 9 0 29.377 0 29.377l15.358 4.446s3.344-13.832 19.445-13.832c15.977 0 14.738 14.326 14.738 14.326-36.908 4.2-47.064 20.13-47.064 31.616C2.477 74.454 8.917 81 19.073 81c20.56 0 30.468-27.664 30.468-27.664V65.07C49.541 77.17 57.221 81 64.9 81 76.417 81 81 74.825 81 74.825l-2.972-10.991s-2.725 6.175-8.794 6.175c-3.963 0-5.573-2.84-5.45-7.163zm-45.578 0c0-6.052 3.716-17.29 31.335-24.33v4.323c.248 5.187-11.642 27.17-24.77 27.17-4.088 0-6.565-2.47-6.565-7.163z"/>
  <path fill="#fff" fill-rule="evenodd" d="M238.46 70.428c19.771 0 19.896-18.155 19.896-18.155l15.419 4.476s-4.477 24.746-37.18 24.746c-20.144 0-38.299-12.933-38.299-36.31C198.296 24.543 212.347 9 235.973 9c22.457 0 31.456 11.806 34.509 23.208l-14.569 3.973c-1.749-8.847-7.67-16.114-19.94-16.114-14.175 0-21.761 10.445-21.761 25.118 0 16.165 10.197 25.243 24.248 25.243z" clip-rule="evenodd"/>
</svg>
